<?xml version="1.0" encoding="UTF-8" standalone="no"?>
<svg
   xmlns:dc="http://purl.org/dc/elements/1.1/"
   xmlns:cc="http://creativecommons.org/ns#"
   xmlns:rdf="http://www.w3.org/1999/02/22-rdf-syntax-ns#"
   xmlns:svg="http://www.w3.org/2000/svg"
   xmlns="http://www.w3.org/2000/svg"
   xmlns:sodipodi="http://sodipodi.sourceforge.net/DTD/sodipodi-0.dtd"
   xmlns:inkscape="http://www.inkscape.org/namespaces/inkscape"
   width="2481"
   height="2073"
   version="1.1"
   id="svg12"
   sodipodi:docname="azulbebe.svg"
   inkscape:version="0.92.1 r15371">
  <metadata
     id="metadata18">
    <rdf:RDF>
      <cc:Work
         rdf:about="">
        <dc:format>image/svg+xml</dc:format>
        <dc:type
           rdf:resource="http://purl.org/dc/dcmitype/StillImage" />
        <dc:title>Map-Marker-Small</dc:title>
      </cc:Work>
    </rdf:RDF>
  </metadata>
  <defs
     id="defs16" />
  <sodipodi:namedview
     pagecolor="#ffffff"
     bordercolor="#666666"
     borderopacity="1"
     objecttolerance="10"
     gridtolerance="10"
     guidetolerance="10"
     inkscape:pageopacity="0"
     inkscape:pageshadow="2"
     inkscape:window-width="1366"
     inkscape:window-height="697"
     id="namedview14"
     showgrid="false"
     inkscape:zoom="0.11384467"
     inkscape:cx="1240.5"
     inkscape:cy="1036.5"
     inkscape:window-x="0"
     inkscape:window-y="24"
     inkscape:window-maximized="1"
     inkscape:current-layer="svg12" />
  <title
     id="title2">Map-Marker-Small</title>
  <g
     id="g10"
     style="fill:#afe9dd">
    <title
       id="title4">Layer 1</title>
    <g
       id="svg_1"
       style="fill:#afe9dd">
      <path
         fill-rule="evenodd"
         clip-rule="evenodd"
         fill="#E81E25"
         stroke="#000000"
         stroke-width="37"
         stroke-miterlimit="10"
         d="m730.940002,1839.629028c-38.765991,-190.301025 -107.115967,-348.665039 -189.903015,-495.439941c-61.406982,-108.87207 -132.543976,-209.363037 -198.363983,-314.937988c-21.972015,-35.24408 -40.93399,-72.477051 -62.046997,-109.054077c-42.216003,-73.136963 -76.444,-157.934998 -74.268997,-267.932007c2.125,-107.472961 33.207993,-193.68399 78.029984,-264.171997c73.719025,-115.934967 197.201019,-210.988983 362.884003,-235.968979c135.466003,-20.423996 262.475037,14.082001 352.54303,66.748001c73.600037,43.037994 130.596008,100.527008 173.919983,168.279999c45.219971,70.716003 76.359009,154.26001 78.970947,263.231995c1.337036,55.830017 -7.804932,107.531982 -20.68396,150.417969c-13.033936,43.409058 -33.995972,79.695007 -52.645996,118.454041c-36.406006,75.658997 -82.04895,144.981995 -127.85498,214.346008c-136.437012,206.605957 -264.496033,417.309937 -320.580017,706.026978z"
         id="svg_2"
         style="fill:#afe9dd" />
      <circle
         fill-rule="evenodd"
         clip-rule="evenodd"
         cx="729.546"
         cy="651.047"
         r="183.333"
         id="svg_4"
         style="fill:#afe9dd" />
    </g>
  </g>
  <circle
     style="clip-rule:evenodd;fill-rule:evenodd"
     cx="720.27966"
     cy="623.65674"
     r="183.33299"
     id="svg_4-3" />
</svg>
